<?xml version="1.0" encoding="UTF-8"?>
<!DOCTYPE svg PUBLIC "-//W3C//DTD SVG 1.1//EN" "http://www.w3.org/Graphics/SVG/1.1/DTD/svg11.dtd">
<svg xmlns="http://www.w3.org/2000/svg" version="1.1" width="28px" height="20px" style="shape-rendering:geometricPrecision; text-rendering:geometricPrecision; image-rendering:optimizeQuality; fill-rule:evenodd; clip-rule:evenodd" xmlns:xlink="http://www.w3.org/1999/xlink">
<g><path style="opacity:1" fill="#5b5a85" d="M -0.5,-0.5 C 1.5,-0.5 3.5,-0.5 5.5,-0.5C 6.41938,2.08917 8.08605,4.08917 10.5,5.5C 10.5,6.5 10.5,7.5 10.5,8.5C 10.5,9.16667 10.5,9.83333 10.5,10.5C 6.83333,10.5 3.16667,10.5 -0.5,10.5C -0.5,6.83333 -0.5,3.16667 -0.5,-0.5 Z"/></g>
<g><path style="opacity:1" fill="#5a5883" d="M 5.5,-0.5 C 7.16667,-0.5 8.83333,-0.5 10.5,-0.5C 10.5,0.5 10.5,1.5 10.5,2.5C 10.5,3.16667 10.5,3.83333 10.5,4.5C 10.5,4.83333 10.5,5.16667 10.5,5.5C 8.08605,4.08917 6.41938,2.08917 5.5,-0.5 Z"/></g>
<g><path style="opacity:1" fill="#d88a8e" d="M 10.5,-0.5 C 16.1667,-0.5 21.8333,-0.5 27.5,-0.5C 27.5,0.5 27.5,1.5 27.5,2.5C 21.8333,2.5 16.1667,2.5 10.5,2.5C 10.5,1.5 10.5,0.5 10.5,-0.5 Z"/></g>
<g><path style="opacity:1" fill="#c86672" d="M 10.5,2.5 C 16.1667,2.5 21.8333,2.5 27.5,2.5C 27.5,3.16667 27.5,3.83333 27.5,4.5C 21.8333,4.5 16.1667,4.5 10.5,4.5C 10.5,3.83333 10.5,3.16667 10.5,2.5 Z"/></g>
<g><path style="opacity:1" fill="#de9aa0" d="M 10.5,4.5 C 16.1667,4.5 21.8333,4.5 27.5,4.5C 27.5,5.83333 27.5,7.16667 27.5,8.5C 21.8333,8.5 16.1667,8.5 10.5,8.5C 10.5,7.5 10.5,6.5 10.5,5.5C 10.5,5.16667 10.5,4.83333 10.5,4.5 Z"/></g>
<g><path style="opacity:1" fill="#c45b68" d="M 10.5,8.5 C 16.1667,8.5 21.8333,8.5 27.5,8.5C 27.5,9.16667 27.5,9.83333 27.5,10.5C 21.8333,10.5 16.1667,10.5 10.5,10.5C 10.5,9.83333 10.5,9.16667 10.5,8.5 Z"/></g>
<g><path style="opacity:1" fill="#da8a91" d="M -0.5,10.5 C 3.16667,10.5 6.83333,10.5 10.5,10.5C 16.1667,10.5 21.8333,10.5 27.5,10.5C 27.5,12.5 27.5,14.5 27.5,16.5C 18.1667,16.5 8.83333,16.5 -0.5,16.5C -0.5,14.5 -0.5,12.5 -0.5,10.5 Z"/></g>
<g><path style="opacity:1" fill="#da8b8e" d="M -0.5,16.5 C 8.83333,16.5 18.1667,16.5 27.5,16.5C 27.5,17.5 27.5,18.5 27.5,19.5C 18.1667,19.5 8.83333,19.5 -0.5,19.5C -0.5,18.5 -0.5,17.5 -0.5,16.5 Z"/></g>
</svg>
