<?xml version="1.0" encoding="UTF-8"?>
<!DOCTYPE svg PUBLIC "-//W3C//DTD SVG 1.1//EN" "http://www.w3.org/Graphics/SVG/1.1/DTD/svg11.dtd">
<svg xmlns="http://www.w3.org/2000/svg" version="1.1" width="28px" height="20px" style="shape-rendering:geometricPrecision; text-rendering:geometricPrecision; image-rendering:optimizeQuality; fill-rule:evenodd; clip-rule:evenodd" xmlns:xlink="http://www.w3.org/1999/xlink">
<g><path style="opacity:1" fill="#199d38" d="M -0.5,-0.5 C 4.5,-0.5 9.5,-0.5 14.5,-0.5C 14.5,-0.166667 14.5,0.166667 14.5,0.5C 11.8021,0.844897 9.80214,2.17823 8.5,4.5C 5.03934,5.55121 2.37267,7.55121 0.5,10.5C 0.166667,10.5 -0.166667,10.5 -0.5,10.5C -0.5,6.83333 -0.5,3.16667 -0.5,-0.5 Z"/></g>
<g><path style="opacity:1" fill="#1a9d38" d="M 14.5,-0.5 C 18.8333,-0.5 23.1667,-0.5 27.5,-0.5C 27.5,3.16667 27.5,6.83333 27.5,10.5C 26.609,11.1098 25.609,11.4431 24.5,11.5C 25.3029,10.5768 25.4696,9.57683 25,8.5C 21.3416,5.93431 17.8416,3.26764 14.5,0.5C 14.5,0.166667 14.5,-0.166667 14.5,-0.5 Z"/></g>
<g><path style="opacity:1" fill="#efdb05" d="M 8.5,4.5 C 8.5,4.83333 8.5,5.16667 8.5,5.5C 7.85048,7.43525 7.51715,9.43525 7.5,11.5C 7.67158,12.4916 7.33825,13.1583 6.5,13.5C 4.5,12.5 2.5,11.5 0.5,10.5C 2.37267,7.55121 5.03934,5.55121 8.5,4.5 Z"/></g>
<g><path style="opacity:1" fill="#112b74" d="M 18.5,9.5 C 15.5436,7.85061 12.5436,6.51728 9.5,5.5C 12.0103,2.91311 14.677,2.91311 17.5,5.5C 18.2458,6.73619 18.5792,8.06953 18.5,9.5 Z"/></g>
<g><path style="opacity:1" fill="#e6d312" d="M 14.5,0.5 C 17.8416,3.26764 21.3416,5.93431 25,8.5C 25.4696,9.57683 25.3029,10.5768 24.5,11.5C 21.1667,13.8333 17.8333,16.1667 14.5,18.5C 11.197,17.8486 8.53033,16.182 6.5,13.5C 7.33825,13.1583 7.67158,12.4916 7.5,11.5C 7.83333,11.5 8.16667,11.5 8.5,11.5C 9.82757,15.254 12.4942,16.4207 16.5,15C 17.8228,14.1841 18.4894,13.0174 18.5,11.5C 18.5,10.8333 18.5,10.1667 18.5,9.5C 18.5792,8.06953 18.2458,6.73619 17.5,5.5C 14.677,2.91311 12.0103,2.91311 9.5,5.5C 9.16667,5.5 8.83333,5.5 8.5,5.5C 8.5,5.16667 8.5,4.83333 8.5,4.5C 9.80214,2.17823 11.8021,0.844897 14.5,0.5 Z"/></g>
<g><path style="opacity:1" fill="#698492" d="M 8.5,5.5 C 8.83333,5.5 9.16667,5.5 9.5,5.5C 12.5436,6.51728 15.5436,7.85061 18.5,9.5C 18.5,10.1667 18.5,10.8333 18.5,11.5C 15.6709,9.02164 12.3375,8.02164 8.5,8.5C 8.5,9.5 8.5,10.5 8.5,11.5C 8.16667,11.5 7.83333,11.5 7.5,11.5C 7.51715,9.43525 7.85048,7.43525 8.5,5.5 Z"/></g>
<g><path style="opacity:1" fill="#199d38" d="M -0.5,10.5 C -0.166667,10.5 0.166667,10.5 0.5,10.5C 2.5,11.5 4.5,12.5 6.5,13.5C 8.53033,16.182 11.197,17.8486 14.5,18.5C 14.5,18.8333 14.5,19.1667 14.5,19.5C 9.5,19.5 4.5,19.5 -0.5,19.5C -0.5,16.5 -0.5,13.5 -0.5,10.5 Z"/></g>
<g><path style="opacity:1" fill="#129c38" d="M 27.5,10.5 C 27.5,13.5 27.5,16.5 27.5,19.5C 23.1667,19.5 18.8333,19.5 14.5,19.5C 14.5,19.1667 14.5,18.8333 14.5,18.5C 17.8333,16.1667 21.1667,13.8333 24.5,11.5C 25.609,11.4431 26.609,11.1098 27.5,10.5 Z"/></g>
<g><path style="opacity:1" fill="#142e76" d="M 18.5,11.5 C 18.4894,13.0174 17.8228,14.1841 16.5,15C 12.4942,16.4207 9.82757,15.254 8.5,11.5C 8.5,10.5 8.5,9.5 8.5,8.5C 12.3375,8.02164 15.6709,9.02164 18.5,11.5 Z"/></g>
</svg>
